<?xml version="1.0" standalone="no"?>
<!DOCTYPE svg PUBLIC "-//W3C//DTD SVG 20010904//EN"
 "http://www.w3.org/TR/2001/REC-SVG-20010904/DTD/svg10.dtd">
<svg version="1.0" xmlns="http://www.w3.org/2000/svg"
 width="475.000000pt" height="475.000000pt" viewBox="0 0 475.000000 475.000000"
 preserveAspectRatio="xMidYMid meet">

<g transform="translate(0.000000,475.000000) scale(0.100000,-0.100000)"
fill="#000000" stroke="none">
<path d="M2652 4518 c-5 -7 -12 -50 -13 -95 -4 -71 -8 -87 -34 -124 -43 -61
-105 -90 -213 -100 l-87 -7 90 2 c78 2 97 6 144 31 29 16 64 43 76 60 31 41
48 108 41 164 -4 25 -2 53 4 61 19 29 31 -11 27 -90 -7 -134 -65 -211 -186
-247 -54 -15 -81 -15 -292 3 -150 13 -283 -56 -314 -165 -12 -41 -35 -54 -35
-19 0 30 42 118 66 140 11 9 46 30 79 45 55 25 70 28 170 28 75 -1 97 2 70 7
-104 18 -208 2 -284 -46 -35 -23 -49 -26 -84 -21 -36 6 -47 14 -75 55 -42 62
-65 82 -84 75 -15 -6 -68 -110 -68 -133 0 -5 -20 -22 -44 -36 -42 -24 -93 -75
-114 -113 -10 -17 -12 -17 -34 4 -38 36 -109 63 -165 63 -37 0 -74 -10 -132
-35 -101 -43 -164 -52 -212 -32 -39 16 -69 65 -69 114 0 48 29 118 60 148 36
34 39 71 8 81 -16 5 -27 0 -41 -17 -27 -33 -73 -135 -81 -182 -10 -56 17 -139
55 -171 45 -38 55 -32 15 8 -67 68 -73 166 -18 279 34 69 53 85 73 61 10 -12
7 -20 -15 -43 -34 -35 -66 -119 -66 -172 0 -137 125 -166 323 -76 69 32 134
35 192 8 51 -23 88 -63 79 -84 -9 -23 -19 -21 -37 7 -9 13 -32 34 -52 46 -49
30 -104 23 -215 -26 -70 -32 -97 -38 -152 -39 -43 0 -61 -3 -51 -9 22 -12 123
-1 164 17 164 75 197 81 248 45 19 -12 43 -35 54 -50 19 -26 20 -32 7 -96 -14
-74 -5 -157 26 -250 12 -35 13 -51 5 -70 -7 -13 -10 -27 -7 -29 8 -8 49 92 47
117 -2 43 -32 124 -53 142 -17 16 -18 22 -8 79 10 54 23 86 74 178 5 9 33 36
63 60 49 40 57 43 93 37 25 -4 40 -2 40 4 0 5 -12 10 -26 10 -23 0 -25 3 -20
28 10 40 52 117 64 117 15 0 93 -106 89 -120 -2 -5 -16 -11 -30 -13 -15 -2
-27 -8 -27 -13 0 -13 15 -11 56 6 20 8 46 12 59 9 l23 -6 -19 -33 c-44 -74
-46 -135 -5 -135 18 0 25 9 35 40 17 56 51 94 79 86 37 -12 120 -114 162 -199
29 -61 46 -116 65 -212 24 -120 55 -238 104 -393 47 -146 168 -351 407 -687
250 -353 292 -487 198 -630 -15 -23 -19 -24 -26 -11 -20 36 -138 2 -138 -40 0
-21 -9 -17 -38 17 -14 18 -41 38 -60 46 -18 8 -41 28 -50 45 -55 100 -191 323
-274 448 -53 80 -102 163 -109 185 -7 22 -15 33 -16 24 -2 -8 6 -38 17 -65
l21 -49 -27 25 c-26 25 -27 25 -15 2 7 -13 22 -28 34 -33 31 -15 190 -255 318
-481 33 -60 64 -110 69 -113 4 -3 6 -14 3 -25 -3 -11 -2 -36 1 -55 8 -41 25
-44 67 -14 49 35 105 2 144 -86 29 -64 90 -262 105 -340 22 -111 0 -217 -79
-371 -61 -120 -55 -180 31 -316 51 -80 117 -211 128 -254 l10 -39 -4 43 c-4
44 -53 148 -124 263 -22 37 -48 90 -58 118 -22 61 -18 68 66 95 154 51 411
199 565 326 112 93 250 244 239 262 -4 6 -3 8 3 5 13 -8 39 21 98 112 81 125
159 299 184 408 13 54 27 106 32 115 12 23 12 98 0 98 -5 0 -11 9 -14 20 -9
36 -33 21 -90 -58 -72 -99 -244 -267 -334 -326 -83 -54 -258 -137 -363 -174
-66 -23 -91 -26 -213 -26 -134 -1 -139 0 -158 23 -23 28 -24 41 -4 41 10 0 16
16 21 50 9 66 25 79 69 56 18 -10 37 -16 42 -13 6 4 5 36 0 79 -5 40 -9 93 -8
117 2 53 -36 166 -85 252 -43 77 -81 133 -204 304 -51 71 -93 136 -94 145 -1
10 19 21 58 34 53 17 68 18 137 8 92 -13 146 -38 198 -93 l39 -40 54 54 c59
59 194 143 245 153 53 10 82 -3 149 -68 85 -81 99 -119 85 -222 -13 -93 -13
-86 -1 -86 46 0 78 278 49 422 -32 160 -109 327 -216 470 -91 122 -265 295
-331 331 -61 32 -150 53 -164 39 -6 -6 -10 -41 -9 -77 3 -161 -143 -448 -303
-595 -51 -47 -138 -102 -147 -92 -24 26 -101 192 -123 267 -15 50 -36 116 -46
147 -10 32 -33 128 -50 214 -20 100 -42 179 -61 217 -35 73 -97 157 -144 194
-19 15 -35 32 -35 36 0 4 21 17 47 29 53 23 135 27 309 13 126 -9 184 3 257
56 71 50 97 104 99 202 2 92 -21 140 -50 105z m395 -759 c126 -60 343 -300
441 -487 28 -54 68 -147 88 -207 36 -106 37 -115 38 -255 0 -112 -4 -158 -17
-204 -22 -71 -31 -69 -17 5 25 130 6 355 -40 469 -95 239 -313 519 -468 603
-80 43 -92 37 -119 -58 -58 -205 -230 -452 -398 -570 -81 -57 -85 -59 -85 -42
0 8 12 19 28 25 15 5 55 35 90 65 171 149 325 438 323 606 -1 101 16 107 136
50z m-1594 -59 c-7 -28 -13 -25 -13 6 0 14 4 23 9 20 5 -3 7 -15 4 -26z m1628
-47 c63 -34 205 -178 284 -288 66 -92 130 -214 159 -300 19 -56 46 -195 46
-241 l0 -30 -62 58 c-79 73 -116 91 -165 82 -73 -12 -267 -135 -294 -186 -11
-20 -12 -19 -52 19 -23 22 -54 47 -69 56 -33 20 -128 46 -178 49 -34 1 -34 1
8 7 l42 6 -26 48 c-20 38 -27 68 -30 135 -6 94 -10 81 65 188 33 47 33 48 6
24 -27 -24 -27 -22 6 25 48 67 98 158 125 224 l22 54 17 -39 c51 -123 78 -356
64 -559 -4 -55 -7 -129 -8 -164 l-1 -64 44 41 c24 22 52 45 63 51 12 6 23 25
27 47 8 42 3 52 -19 34 -13 -11 -15 -8 -15 16 l0 29 -19 -24 -18 -24 -5 28
c-3 15 -3 71 -1 126 3 68 1 99 -6 99 -6 0 -11 5 -11 11 0 5 5 7 12 3 8 -5 9 0
5 17 -4 13 -7 33 -8 44 l0 20 -9 -20 c-7 -16 -9 -13 -9 17 -1 50 -26 167 -55
258 -53 166 -45 182 65 123z m-1601 -3 c0 -11 -4 -20 -10 -20 -5 0 -10 9 -10
20 0 11 5 20 10 20 6 0 10 -9 10 -20z m1597 -702 c-2 -24 -4 -7 -4 37 0 44 2
63 4 43 2 -21 2 -57 0 -80z m-516 -63 c6 -11 -1 -6 -15 10 -14 17 -26 35 -26
40 1 11 27 -20 41 -50z m506 -47 c-2 -13 -4 -5 -4 17 -1 22 1 32 4 23 2 -10 2
-28 0 -40z m-426 12 c-54 -20 -71 -19 -71 3 0 9 3 8 8 -1 7 -10 15 -10 43 2
19 9 43 15 54 15 11 0 -4 -8 -34 -19z m1376 -626 c-7 -99 -39 -199 -113 -353
-88 -185 -217 -325 -422 -458 -65 -42 -133 -86 -152 -99 -78 -52 -319 -144
-374 -144 -9 0 -7 20 6 73 30 114 10 259 -60 445 -19 49 -19 52 -3 47 65 -20
290 -5 356 24 11 5 36 15 55 22 57 21 200 92 279 139 95 56 286 239 359 344
67 94 78 88 69 -40z m-1028 -261 c1 -24 -1 -43 -4 -43 -12 0 -55 24 -52 29 2
3 12 25 23 48 22 48 32 37 33 -34z m-288 -29 l24 -26 -28 -24 c-36 -31 -47
-24 -47 32 0 52 14 57 51 18z m178 -26 c0 -29 -4 -62 -8 -72 -7 -17 -11 -15
-49 21 -23 22 -42 47 -42 55 0 17 53 47 83 48 14 0 17 -9 16 -52z m796 -388
c-16 -16 -31 -28 -33 -25 -7 7 39 55 52 55 5 0 -3 -13 -19 -30z m-45 -39 c0
-6 -11 -23 -25 -38 -25 -28 -25 -28 -22 -4 4 28 47 66 47 42z m-67 -65 c-3
-13 -18 -37 -34 -52 l-29 -28 6 34 c6 32 35 70 54 70 4 0 5 -11 3 -24z m-83
-75 c-6 -16 -24 -38 -40 -50 l-30 -21 11 27 c5 14 7 33 5 40 -3 8 8 22 27 33
36 22 45 13 27 -29z m-83 -63 c-16 -37 -87 -88 -73 -52 4 10 10 31 13 46 6 32
66 77 71 54 2 -8 -3 -29 -11 -48z m-87 -43 c-6 -19 -26 -46 -43 -59 -56 -40
-60 -41 -43 -8 9 17 16 41 16 54 0 16 11 29 38 43 43 24 48 19 32 -30z m-90
-22 c-1 -42 -45 -96 -108 -129 -34 -19 -65 -34 -67 -34 -3 0 6 17 19 39 14 21
31 54 39 74 12 27 25 38 59 50 56 20 58 20 58 0z m-140 -58 c-31 -82 -77 -125
-177 -164 -44 -17 -53 -18 -53 -6 0 8 4 15 8 15 15 0 110 102 122 130 11 26
49 46 92 49 15 1 16 -3 8 -24z m-110 -14 c0 -12 -101 -123 -107 -118 -2 3 12
32 32 66 25 42 42 61 55 61 11 0 20 -4 20 -9z"/>
<path d="M2995 3669 c-4 -5 -3 -14 1 -21 4 -6 8 -21 9 -32 7 -59 58 -197 78
-211 20 -14 22 -14 25 4 2 10 -4 36 -12 56 -23 54 -20 60 15 31 17 -14 37 -26
45 -26 8 0 14 -5 14 -12 0 -6 2 -9 6 -6 3 3 -9 31 -25 62 -32 58 -28 68 14 40
41 -27 28 2 -20 44 -48 43 -141 87 -150 71z"/>
<path d="M3520 2945 c0 -22 5 -35 13 -35 9 0 12 11 9 35 -2 19 -8 35 -13 35
-5 0 -9 -16 -9 -35z"/>
<path d="M1883 3825 c-13 -9 -28 -35 -34 -58 -15 -57 -1 -177 21 -177 4 0 2
21 -6 47 -20 66 -17 105 9 144 24 36 52 48 70 30 8 -8 5 -11 -10 -11 -42 0
-55 -110 -23 -195 9 -24 14 -26 43 -20 65 14 70 21 63 81 -8 71 -32 130 -64
154 -30 24 -41 25 -69 5z m55 -96 c-1 -12 -8 -24 -15 -26 -17 -6 -27 35 -12
53 16 19 32 4 27 -27z"/>
<path d="M1436 3449 c-3 -17 -6 -45 -6 -60 0 -17 -20 -64 -45 -108 -43 -73
-94 -198 -95 -231 -1 -43 -16 -43 -90 1 -39 23 -75 49 -78 57 -4 12 -7 10 -13
-6 -9 -23 -30 -21 -61 6 -25 21 -23 28 20 57 34 23 38 24 50 8 6 -9 12 -12 12
-6 0 6 -7 16 -15 23 -12 10 -21 8 -48 -9 -29 -18 -37 -19 -73 -8 -22 7 -54 23
-72 35 -35 26 -63 23 -61 -5 1 -17 2 -17 6 0 6 23 13 22 62 -13 45 -33 45 -42
0 -65 -37 -20 -49 -13 -50 28 0 27 -2 29 -8 12 -18 -44 -48 -59 -114 -56 -34
1 -57 -2 -52 -6 36 -28 72 -92 77 -136 8 -73 63 -171 127 -228 62 -55 171
-113 246 -130 64 -14 222 -15 256 -1 15 6 29 8 33 5 3 -3 -9 -28 -27 -57 -42
-66 -90 -156 -83 -156 2 0 20 27 38 60 22 41 41 63 57 67 36 9 329 -5 461 -22
63 -8 118 -15 123 -15 4 0 7 -48 7 -106 l0 -106 -47 5 -48 6 43 -12 c53 -15
61 -28 63 -97 0 -30 4 -79 8 -108 l8 -53 -56 6 c-31 3 -113 13 -184 22 -131
15 -525 14 -574 -2 -19 -6 -23 -4 -23 15 0 18 -15 4 -66 -60 -76 -97 -83 -110
-118 -215 -33 -98 -43 -204 -26 -274 16 -70 24 -58 10 16 -20 114 19 273 102
409 18 30 43 65 55 76 l23 21 0 -94 c0 -193 65 -403 168 -540 65 -88 210 -221
315 -289 53 -35 97 -67 97 -71 0 -14 -117 -153 -182 -216 -76 -74 -161 -119
-263 -138 -98 -19 -105 -19 -105 4 0 26 -47 81 -70 81 -10 0 -34 16 -53 35
-20 20 -45 35 -58 35 -14 0 -32 11 -42 25 -17 24 -17 25 5 39 39 25 149 63
222 75 37 7 80 19 94 29 25 16 25 16 13 -5 -6 -12 -16 -25 -21 -28 -6 -3 -10
-11 -10 -17 0 -16 49 32 65 63 12 22 19 25 47 21 40 -6 31 7 -17 24 -143 49
-308 211 -361 354 -7 19 -13 27 -13 17 -1 -9 12 -46 28 -81 36 -79 135 -185
229 -246 39 -25 70 -49 68 -55 -6 -22 -68 -53 -128 -64 -115 -22 -183 -50
-284 -119 -102 -69 -128 -102 -80 -102 30 0 34 -17 9 -36 -26 -20 -4 -31 73
-40 48 -5 63 -10 67 -24 6 -25 58 -28 208 -13 141 14 193 26 263 60 55 28 205
168 268 251 23 32 45 60 48 65 3 4 55 -13 116 -37 60 -25 154 -54 209 -66 119
-25 293 -36 353 -22 36 9 44 8 49 -6 10 -25 -13 -116 -56 -217 -60 -139 -55
-167 45 -289 65 -78 154 -132 154 -92 0 9 -7 12 -20 9 -23 -6 -104 57 -126 99
-23 45 3 78 61 78 55 0 85 -39 85 -110 0 -30 4 -40 16 -40 9 0 43 -24 75 -54
90 -84 110 -84 123 -3 11 67 22 72 69 32 23 -20 48 -34 57 -33 37 7 54 154 23
187 -28 29 -56 39 -79 31 -27 -10 -54 -48 -54 -75 -1 -15 -4 -13 -14 10 -19
43 -43 65 -72 65 -43 0 -83 -28 -109 -78 -14 -26 -25 -40 -24 -32 4 43 -4 64
-31 92 -27 27 -36 30 -73 25 -29 -4 -48 -14 -63 -32 l-21 -26 -15 23 c-35 53
-38 92 -11 165 13 37 36 100 50 138 20 56 24 84 21 142 -4 84 -11 93 -113 161
-92 60 -205 174 -236 237 -21 45 -24 63 -24 172 0 67 -3 113 -7 103 -13 -36
-222 -87 -408 -101 -101 -7 -100 -7 30 -3 131 4 182 13 321 57 l47 14 -2 -86
-2 -86 -45 -22 c-79 -40 -194 -64 -314 -65 -93 -1 -103 -3 -65 -10 93 -19 272
9 374 58 28 13 51 24 52 24 2 0 12 -21 24 -47 11 -26 32 -62 46 -80 14 -18 23
-37 19 -42 -9 -15 -154 -68 -223 -82 -119 -23 -279 -1 -383 51 -45 23 -248
214 -238 224 3 3 30 -7 60 -23 61 -33 172 -71 203 -70 12 0 -6 9 -39 19 -85
25 -152 53 -210 87 -39 23 -57 42 -81 88 -18 33 -35 70 -38 82 l-7 23 43 -25
c62 -36 221 -85 271 -84 42 1 42 1 -13 10 -133 22 -290 91 -314 138 -14 27
-49 161 -44 166 2 2 35 -7 73 -20 39 -12 86 -26 105 -30 62 -13 24 6 -61 31
-130 38 -130 38 -127 147 l3 92 65 12 c109 20 401 15 600 -10 l175 -23 22 -84
c12 -47 25 -94 28 -106 6 -19 1 -22 -52 -32 -104 -19 -305 -34 -415 -31 -58 2
-104 1 -101 -3 12 -21 442 1 566 28 15 4 27 2 27 -3 0 -6 12 -27 26 -48 20
-30 24 -46 20 -74 -5 -34 -4 -33 11 9 9 25 26 64 39 88 12 23 19 42 15 42 -5
0 -16 -18 -26 -40 -10 -22 -23 -39 -29 -37 -25 8 -86 154 -105 252 -24 121
-42 360 -36 470 2 44 7 170 10 280 4 110 13 252 21 315 16 130 17 214 4 280
-6 36 -4 52 11 82 10 20 19 48 18 60 0 16 -7 7 -20 -28 -11 -27 -31 -63 -45
-80 l-25 -29 16 32 c16 35 20 100 6 122 -5 8 -10 -10 -13 -52 -6 -100 -58
-156 -191 -205 -131 -49 -288 -8 -357 94 -20 30 -24 49 -24 105 0 38 -1 69 -2
69 -1 0 -4 -14 -8 -31z m12 -140 c12 -19 11 -24 -11 -48 -30 -31 -88 -144
-113 -221 -24 -71 -30 -40 -9 42 16 65 100 248 113 248 4 0 13 -10 20 -21z
m611 -61 c1 -42 -2 -49 -26 -61 -81 -42 -323 -66 -323 -33 0 8 22 18 60 25 74
15 205 79 245 121 26 27 30 29 37 13 3 -10 7 -39 7 -65z m-1 -115 c-3 -47 -4
-48 -52 -66 -62 -23 -217 -33 -272 -18 -40 11 -41 12 -35 44 l7 32 65 -3 c67
-3 184 17 241 42 48 21 49 20 46 -31z m-1046 5 c-4 -27 57 -70 91 -65 23 3 49
-8 111 -46 45 -27 101 -56 126 -63 60 -18 206 -18 259 1 22 8 41 12 41 9 0
-14 -153 -301 -171 -320 -37 -39 -182 -56 -291 -33 -86 18 -211 83 -271 142
-54 53 -117 164 -117 206 0 12 9 34 21 50 11 15 21 42 21 60 1 20 8 36 20 42
14 7 18 6 18 -5 0 -8 4 -17 10 -21 14 -9 77 21 92 44 15 24 44 23 40 -1z
m-223 -44 c33 -7 38 -22 20 -56 -11 -20 -12 -19 -45 13 -50 48 -45 57 25 43z
m1263 -71 c-9 -90 -25 -103 -129 -103 -17 0 -35 -5 -39 -11 -4 -8 6 -9 35 -5
22 3 59 9 81 12 l40 6 0 -45 c0 -24 -3 -65 -6 -91 l-7 -46 -56 -2 c-37 -1 -44
-2 -21 -5 88 -9 83 -1 76 -121 -4 -58 -8 -108 -10 -109 -2 -2 -51 4 -109 12
-59 9 -192 19 -297 23 l-189 7 61 98 61 97 121 2 121 2 -116 6 -116 5 41 85
c28 58 46 84 56 82 51 -12 111 -18 115 -12 2 4 -21 10 -52 13 -31 3 -59 9 -63
14 -5 4 2 31 15 60 l23 52 39 -11 c49 -14 225 -4 278 16 22 8 43 15 46 15 4 1
4 -20 1 -46z m-495 -25 c-2 -13 -4 -3 -4 22 0 25 2 35 4 23 2 -13 2 -33 0 -45z
m732 -1844 c38 -34 40 -38 26 -54 -22 -24 -114 -69 -176 -85 -30 -8 -91 -15
-137 -15 -80 0 -85 2 -195 56 -129 64 -151 79 -81 58 30 -10 93 -16 159 -17
123 -2 199 14 293 61 31 16 60 30 63 30 4 1 25 -14 48 -34z m111 -86 c27 -18
48 -37 47 -43 -6 -18 -80 -64 -131 -81 -56 -19 -128 -15 -247 12 l-74 18 58 8
c93 12 189 45 242 83 28 19 51 35 53 35 1 0 25 -15 52 -32z m100 -94 c7 -19
10 -38 7 -40 -3 -3 -47 -7 -98 -10 l-94 -5 65 35 c35 20 71 43 79 51 19 18 27
12 41 -31z m-1510 -119 c15 -19 11 -24 -50 -57 -31 -17 -54 -23 -73 -19 l-29
6 24 21 c29 27 89 64 104 64 6 0 17 -7 24 -15z m94 -51 c14 -15 26 -30 26 -34
0 -4 -22 -21 -49 -38 -47 -31 -52 -32 -120 -26 -39 4 -71 10 -71 15 0 22 140
109 176 109 6 0 23 -12 38 -26z m86 -54 c24 -13 42 -64 27 -79 -13 -13 -187
-15 -187 -3 0 14 42 48 85 70 47 25 50 25 75 12z m1688 -311 c13 -25 12 -175
-2 -198 -9 -15 -80 34 -129 88 -33 36 -35 43 -26 70 13 37 54 79 82 84 28 4
58 -13 75 -44z m126 40 c32 -15 50 -67 42 -122 -11 -69 -19 -75 -61 -42 -65
49 -80 126 -32 160 26 18 20 18 51 4z"/>
<path d="M1692 3278 c-14 -14 -16 -28 -2 -28 5 0 14 9 20 20 12 22 1 27 -18 8z"/>
<path d="M1558 3258 c12 -12 25 -19 28 -15 4 4 -1 14 -12 22 -29 22 -41 18
-16 -7z"/>
<path d="M1291 2325 c-35 -76 -40 -99 -11 -43 19 35 23 37 87 44 38 5 94 8
125 9 32 0 58 3 58 8 0 9 -70 8 -167 -2 -74 -7 -88 0 -61 27 6 6 9 14 5 18 -3
3 -20 -24 -36 -61z"/>
<path d="M1630 2329 c41 -5 117 -16 169 -24 51 -9 95 -14 98 -12 10 10 -236
48 -299 46 -31 -1 -22 -4 32 -10z"/>
<path d="M1236 2195 c-9 -26 -7 -32 5 -12 6 10 9 21 6 23 -2 3 -7 -2 -11 -11z"/>
<path d="M1215 2130 c-4 -17 -5 -34 -2 -36 2 -3 7 10 11 27 8 42 0 50 -9 9z"/>
<path d="M2434 2035 c-10 -8 -14 -15 -8 -15 5 0 19 7 30 15 10 8 14 15 8 15
-5 0 -19 -7 -30 -15z"/>
<path d="M2323 1933 c-23 -26 -43 -52 -43 -57 0 -5 1 -7 3 -5 2 2 25 28 52 57
26 28 44 52 40 52 -5 0 -28 -21 -52 -47z"/>
<path d="M2590 941 c0 -6 9 -15 20 -21 14 -8 20 -21 20 -47 0 -42 5 -41 13 4
5 28 2 35 -23 53 -17 12 -30 17 -30 11z"/>
</g>
</svg>
